<svg width="251" height="251" viewBox="0 0 251 251" fill="none" xmlns="http://www.w3.org/2000/svg">
<path d="M250.3 119.6H181.8C172.7 119.3 156.2 118.1 154.4 113.2C152 106.6 169.3 88.8 169.3 88.8L204.3 53.9L196.5 46.1L161 81.6C157.8 84.6 143.1 98.2 137.2 96C131.9 94.1 130.8 75.4 130.7 66.9V0H119.7V69.7C119.3 79 118 94 113.3 95.7C107 98 90.4 82.6 88.8 81.1L53.9 46.2L46.1 54L84 91.9C89 97.3 98.4 108.4 96.6 113.3C94.7 118.6 75.9 119.6 67.4 119.8H0V130.8H62.6C62.6 130.8 93.6 130.4 96.1 137.3C97.8 142.1 89.3 152.7 84.4 158.3L46.1 196.6L53.9 204.4L90.8 167.5C95.7 163.1 108.1 152.8 113.3 154.7C118 156.4 119.3 171.3 119.7 180.7V250.5H130.7V183.4C130.9 174.9 131.9 156.2 137.2 154.3C142.2 152.5 153.3 161.8 158.6 166.6L196.5 204.5L204.3 196.7L167.4 159.8C163 154.9 152.6 142.7 154.5 137.4C157 130.5 188 130.9 188 130.9H250.5V119.9L250.3 119.6Z" fill="#262626"/>
</svg>
